<svg width="98" height="20" viewBox="0 0 98 20" fill="none" xmlns="http://www.w3.org/2000/svg">
<path d="M76.1347 14.5409H78.2677V0.604645H76.1347V14.5409ZM95.346 5.62476L92.901 11.6668H92.8278L90.2903 5.62476H87.9927L91.7979 14.0696L89.6284 18.767H91.854L97.7178 5.62476H95.346ZM83.2502 12.958C82.5507 12.958 81.5768 12.6174 81.5768 11.7744C81.5768 10.6987 82.7907 10.2864 83.8378 10.2864C84.7762 10.2864 85.2163 10.4836 85.7867 10.7528C85.6209 12.0435 84.4813 12.958 83.2502 12.958ZM83.5074 5.31987C81.9632 5.31987 80.364 5.98351 79.7022 7.45369L81.5951 8.22446C81.9997 7.45369 82.753 7.20242 83.544 7.20242C84.647 7.20242 85.7684 7.84821 85.7867 8.99567V9.13892C85.4003 8.92376 84.5739 8.60114 83.5623 8.60114C81.5219 8.60114 79.4439 9.69453 79.4439 11.7386C79.4439 13.6033 81.1173 14.8047 82.9919 14.8047C84.4264 14.8047 85.2163 14.1772 85.7135 13.4422H85.7867V14.5178H87.8453V9.17459C87.8453 6.70076 85.9524 5.31987 83.5074 5.31987ZM70.3258 7.32125H67.2921V2.54427H70.3258C71.9203 2.54427 72.8256 3.83185 72.8256 4.93271C72.8256 6.01271 71.9203 7.32125 70.3258 7.32125ZM70.2709 0.604645H65.1603V14.5409H67.2921V9.26088H70.2709C72.6347 9.26088 74.9585 7.5917 74.9585 4.93271C74.9585 2.27382 72.6347 0.604645 70.2709 0.604645ZM42.4022 12.9605C40.9287 12.9605 39.695 11.7573 39.695 10.1048C39.695 8.43482 40.9287 7.21334 42.4022 7.21334C43.857 7.21334 44.9987 8.43482 44.9987 10.1048C44.9987 11.7573 43.857 12.9605 42.4022 12.9605ZM44.8513 6.40512H44.7776C44.299 5.8485 43.3778 5.34562 42.2179 5.34562C39.787 5.34562 37.559 7.42883 37.559 10.1048C37.559 12.7629 39.787 14.8282 42.2179 14.8282C43.3778 14.8282 44.299 14.3253 44.7776 13.7509H44.8513V14.4333C44.8513 16.2475 43.857 17.2172 42.2549 17.2172C40.9475 17.2172 40.1372 16.301 39.8053 15.5289L37.9457 16.2832C38.4797 17.5403 39.8978 19.085 42.2549 19.085C44.7593 19.085 46.877 17.6479 46.877 14.1459V5.63301H44.8513V6.40512ZM48.3501 14.5409H50.4862V0.6042H48.3501V14.5409ZM53.6353 9.94324C53.58 8.11119 55.0901 7.17756 56.1764 7.17756C57.0241 7.17756 57.7419 7.59036 57.9808 8.18354L53.6353 9.94324ZM60.2647 8.36291C59.86 7.30297 58.6255 5.34562 56.1027 5.34562C53.5983 5.34562 51.5176 7.2673 51.5176 10.0869C51.5176 12.745 53.58 14.8282 56.3421 14.8282C58.5707 14.8282 59.86 13.4992 60.3938 12.7271L58.7364 11.6493C58.1843 12.4397 57.4287 12.9605 56.3421 12.9605C55.2557 12.9605 54.4824 12.4755 53.985 11.5239L60.4853 8.90158L60.2647 8.36291ZM8.47517 6.80042V8.81184H13.4103C13.2629 9.94324 12.8762 10.7693 12.2869 11.3441C11.5689 12.0447 10.4456 12.8168 8.47517 12.8168C5.4366 12.8168 3.06123 10.4283 3.06123 7.46495C3.06123 4.50162 5.4366 2.11273 8.47517 2.11273C10.1142 2.11273 11.3108 2.74147 12.1949 3.5497L13.6496 2.13101C12.4159 0.981331 10.7768 0.101316 8.47517 0.101316C4.31321 0.101316 0.814453 3.406 0.814453 7.46495C0.814453 11.5239 4.31321 14.8282 8.47517 14.8282C10.7219 14.8282 12.4159 14.1102 13.7417 12.7629C15.1044 11.4338 15.5281 9.5661 15.5281 8.05768C15.5281 7.59036 15.4914 7.15972 15.4174 6.80042H8.47517ZM21.1389 12.9605C19.6654 12.9605 18.3947 11.7752 18.3947 10.0869C18.3947 8.38075 19.6654 7.21334 21.1389 7.21334C22.6118 7.21334 23.8825 8.38075 23.8825 10.0869C23.8825 11.7752 22.6118 12.9605 21.1389 12.9605ZM21.1389 5.34562C18.45 5.34562 16.2585 7.33909 16.2585 10.0869C16.2585 12.8168 18.45 14.8282 21.1389 14.8282C23.8272 14.8282 26.0187 12.8168 26.0187 10.0869C26.0187 7.33909 23.8272 5.34562 21.1389 5.34562ZM31.7843 12.9605C30.3114 12.9605 29.0406 11.7752 29.0406 10.0869C29.0406 8.38075 30.3114 7.21334 31.7843 7.21334C33.2574 7.21334 34.5281 8.38075 34.5281 10.0869C34.5281 11.7752 33.2574 12.9605 31.7843 12.9605ZM31.7843 5.34562C29.0955 5.34562 26.9045 7.33909 26.9045 10.0869C26.9045 12.8168 29.0955 14.8282 31.7843 14.8282C34.4728 14.8282 36.6642 12.8168 36.6642 10.0869C36.6642 7.33909 34.4728 5.34562 31.7843 5.34562Z" fill="#07152A"/>
</svg>
