<svg width="153" height="36" viewBox="0 0 153 36" fill="none" xmlns="http://www.w3.org/2000/svg">
<path d="M45.584 16.0104C45.584 10.9578 49.4698 6.94727 54.7773 6.94727C58.7578 6.94727 62.2961 9.50516 63.2755 13.2315H59.3897C58.6631 11.4631 56.736 10.4209 54.7773 10.4209C51.4285 10.4209 49.1855 12.8841 49.1855 16.0104C49.1855 19.1367 51.3969 21.5999 54.7773 21.5999C56.736 21.5999 58.6947 20.5262 59.3897 18.7894H63.2755C62.2961 22.5157 58.7578 25.0736 54.7773 25.0736C49.4698 25.0736 45.584 21.0946 45.584 16.0104Z" fill="#062B61"/>
<path d="M64.9814 18.6003C64.9814 15.0003 67.8879 12.1582 71.4894 12.1582C75.0909 12.1582 77.9973 15.0003 77.9973 18.6003C77.9973 22.2319 75.0909 25.0424 71.4894 25.0424C67.8879 25.0424 64.9814 22.2319 64.9814 18.6003ZM74.5222 18.6003C74.5222 16.7056 73.2269 15.3161 71.4578 15.3161C69.6886 15.3161 68.3618 16.7056 68.3618 18.6003C68.3618 20.495 69.6571 21.8845 71.4578 21.8845C73.2269 21.8845 74.5222 20.5266 74.5222 18.6003Z" fill="#062B61"/>
<path d="M80.4619 29.9368V12.4421H83.8423V13.8316C84.4109 13.0421 85.7062 12.1895 87.4122 12.1895C90.6977 12.1895 93.2251 15.1579 93.2251 18.6316C93.2251 22.1052 90.6977 25.0737 87.4122 25.0737C85.7062 25.0737 84.4109 24.221 83.8423 23.4316V29.9684H80.4619V29.9368ZM89.7816 18.6C89.7816 16.6421 88.5495 15.2526 86.6855 15.2526C84.8216 15.2526 83.5895 16.6737 83.5895 18.6C83.5895 20.5579 84.8216 21.9473 86.6855 21.9473C88.5495 21.9789 89.7816 20.5579 89.7816 18.6Z" fill="#062B61"/>
<path d="M96.1946 29.9371L98.7851 24.095L93.604 12.4424H97.3003L100.617 20.4319L103.903 12.4424H107.631L99.8908 29.9371H96.1946Z" fill="#062B61"/>
<path d="M109.526 7.2627H115.939C118.909 7.2627 121.152 9.56796 121.152 12.3469C121.152 13.7048 120.647 14.7153 119.762 15.4732C121.31 16.2311 122.353 17.6522 122.353 19.6101C122.353 22.5153 120.046 24.7574 116.919 24.7574H109.495V7.2627H109.526ZM115.623 14.4311C116.887 14.4311 117.709 13.5785 117.709 12.4732C117.709 11.3995 116.887 10.4837 115.623 10.4837H113.128V14.3995H115.623V14.4311ZM116.698 21.5048C118.056 21.5048 118.909 20.6522 118.909 19.5153C118.909 18.3785 118.056 17.4943 116.698 17.4943H113.128V21.5048H116.698Z" fill="#062B61"/>
<path d="M125.101 12.4417H128.481V14.4312C128.892 13.2312 130.156 12.3154 131.546 12.3154C131.925 12.3154 132.272 12.347 132.683 12.4733V15.9154C132.178 15.7575 131.735 15.6312 131.167 15.6312C129.556 15.6312 128.513 16.8628 128.513 18.9154V24.8207H125.101V12.4417Z" fill="#062B61"/>
<path d="M134.01 18.6003C134.01 15.0003 136.917 12.1582 140.518 12.1582C144.12 12.1582 147.026 15.0003 147.026 18.6003C147.026 22.2319 144.12 25.0424 140.518 25.0424C136.917 25.0424 134.01 22.2319 134.01 18.6003ZM143.583 18.6003C143.583 16.7056 142.287 15.3161 140.518 15.3161C138.749 15.3161 137.422 16.7056 137.422 18.6003C137.422 20.495 138.717 21.8845 140.518 21.8845C142.256 21.8845 143.583 20.5266 143.583 18.6003Z" fill="#062B61"/>
<ellipse rx="10.6282" ry="10.6553" transform="matrix(0.259531 -0.965735 0.966116 0.258109 13.0526 22.2724)" fill="url(#paint0_linear_11025_129)"/>
<ellipse rx="10.6282" ry="10.6553" transform="matrix(0.259531 -0.965735 0.966116 0.258109 22.8458 13.4647)" fill="url(#paint1_linear_11025_129)" fill-opacity="0.9"/>
<defs>
<linearGradient id="paint0_linear_11025_129" x1="2.96362" y1="24.0769" x2="16.2821" y2="-1.8371" gradientUnits="userSpaceOnUse">
<stop offset="0.0328499" stop-color="#050B41"/>
<stop offset="1" stop-color="#081477"/>
</linearGradient>
<linearGradient id="paint1_linear_11025_129" x1="11.9976" y1="-1.70075" x2="-0.0481411" y2="21.2854" gradientUnits="userSpaceOnUse">
<stop stop-color="#00CFFF"/>
<stop offset="1" stop-color="#0065FF"/>
<stop offset="1" stop-color="#005BEC"/>
</linearGradient>
</defs>
</svg>
